<?xml version="1.0" encoding="UTF-8"?>
<svg xmlns="http://www.w3.org/2000/svg" xmlns:xlink="http://www.w3.org/1999/xlink" width="26pt" height="26pt" viewBox="0 0 26 26" version="1.1">
<g id="surface1029300">
<path style=" stroke:none;fill-rule:nonzero;fill:rgb(5.098039%,27.843137%,63.137255%);fill-opacity:1;" d="M 12.96875 0.3125 C 12.425781 0.3125 11.882812 0.867188 10.78125 1.96875 L 4.21875 8.5625 C 3.011719 9.773438 3.414062 10 4.6875 10 L 8 10 L 8 18 C 8 19.65625 9.34375 21 11 21 L 15 21 C 16.65625 21 18 19.65625 18 18 L 18 10 L 21.25 10 C 22.660156 10 22.957031 9.773438 21.75 8.5625 L 15.15625 1.96875 C 14.054688 0.867188 13.511719 0.3125 12.96875 0.3125 Z M 0 19 L 0 23 C 0 24.65625 1.34375 26 3 26 L 23 26 C 24.65625 26 26 24.65625 26 23 L 26 19 L 24 19 L 24 23 C 24 23.550781 23.550781 24 23 24 L 3 24 C 2.449219 24 2 23.550781 2 23 L 2 19 Z M 0 19 "/>
</g>
</svg>
